<svg width="36" height="40" viewBox="0 0 36 40" fill="none" xmlns="http://www.w3.org/2000/svg">
<path d="M22.6666 18.75C23.2192 18.75 23.7491 18.9695 24.1398 19.3602C24.5305 19.7509 24.75 20.2808 24.75 20.8333C24.75 21.3859 24.5305 21.9158 24.1398 22.3065C23.7491 22.6972 23.2192 22.9167 22.6666 22.9167C22.1141 22.9167 21.5842 22.6972 21.1935 22.3065C20.8028 21.9158 20.5833 21.3859 20.5833 20.8333C20.5833 20.2808 20.8028 19.7509 21.1935 19.3602C21.5842 18.9695 22.1141 18.75 22.6666 18.75ZM22.6666 19.7917C22.3904 19.7917 22.1254 19.9014 21.9301 20.0968C21.7347 20.2921 21.625 20.5571 21.625 20.8333C21.625 21.1096 21.7347 21.3746 21.9301 21.5699C22.1254 21.7653 22.3904 21.875 22.6666 21.875C22.9429 21.875 23.2078 21.7653 23.4032 21.5699C23.5986 21.3746 23.7083 21.1096 23.7083 20.8333C23.7083 20.5571 23.5986 20.2921 23.4032 20.0968C23.2078 19.9014 22.9429 19.7917 22.6666 19.7917ZM13.2916 18.75C13.8442 18.75 14.3741 18.9695 14.7648 19.3602C15.1555 19.7509 15.375 20.2808 15.375 20.8333C15.375 21.3859 15.1555 21.9158 14.7648 22.3065C14.3741 22.6972 13.8442 22.9167 13.2916 22.9167C12.7391 22.9167 12.2092 22.6972 11.8185 22.3065C11.4278 21.9158 11.2083 21.3859 11.2083 20.8333C11.2083 20.2808 11.4278 19.7509 11.8185 19.3602C12.2092 18.9695 12.7391 18.75 13.2916 18.75ZM13.2916 19.7917C13.0154 19.7917 12.7504 19.9014 12.5551 20.0968C12.3597 20.2921 12.25 20.5571 12.25 20.8333C12.25 21.1096 12.3597 21.3746 12.5551 21.5699C12.7504 21.7653 13.0154 21.875 13.2916 21.875C13.5679 21.875 13.8328 21.7653 14.0282 21.5699C14.2235 21.3746 14.3333 21.1096 14.3333 20.8333C14.3333 20.5571 14.2235 20.2921 14.0282 20.0968C13.8328 19.9014 13.5679 19.7917 13.2916 19.7917ZM24.75 6.25H10.4479L13.1041 12.5H21.625C21.9687 12.5 22.2708 12.3333 22.4583 12.0833L25.5833 7.91667C25.7187 7.73958 25.7916 7.52083 25.7916 7.29167C25.7916 7.0154 25.6819 6.75045 25.4865 6.5551C25.2912 6.35975 25.0262 6.25 24.75 6.25ZM21.625 13.5417H13.1562L12.3541 15.1667L12.25 15.625C12.25 15.9013 12.3597 16.1662 12.5551 16.3616C12.7504 16.5569 13.0154 16.6667 13.2916 16.6667H24.75V17.7083H13.2916C12.7391 17.7083 12.2092 17.4888 11.8185 17.0981C11.4278 16.7074 11.2083 16.1775 11.2083 15.625C11.208 15.2716 11.2976 14.9238 11.4687 14.6146L12.2187 13.0833L8.43746 4.16667H7.04163V3.125H9.12496L10.0104 5.20833H24.75C25.3025 5.20833 25.8324 5.42783 26.2231 5.81853C26.6138 6.20923 26.8333 6.73913 26.8333 7.29167C26.8333 7.8125 26.6562 8.25 26.3645 8.60417L23.3333 12.6563C22.9583 13.1875 22.3333 13.5417 21.625 13.5417Z" fill="black"/>
<path d="M13.3596 29.224C13.4556 29.288 13.5116 29.372 13.5276 29.476C13.5436 29.572 13.5196 29.668 13.4556 29.764C13.3996 29.836 13.3276 29.876 13.2396 29.884C13.1516 29.892 13.0676 29.876 12.9876 29.836C12.6836 29.636 12.3556 29.48 12.0036 29.368C11.6596 29.256 11.2876 29.2 10.8876 29.2C10.3996 29.2 9.94361 29.288 9.51961 29.464C9.10361 29.632 8.73961 29.88 8.42761 30.208C8.11561 30.528 7.87161 30.908 7.69561 31.348C7.52761 31.788 7.44361 32.272 7.44361 32.8C7.44361 33.344 7.53161 33.84 7.70761 34.288C7.88361 34.728 8.12761 35.108 8.43961 35.428C8.75961 35.748 9.12761 35.992 9.54361 36.16C9.95961 36.328 10.4076 36.412 10.8876 36.412C11.2796 36.412 11.6476 36.356 11.9916 36.244C12.3436 36.132 12.6716 35.98 12.9756 35.788C13.0556 35.74 13.1396 35.724 13.2276 35.74C13.3236 35.748 13.3996 35.792 13.4556 35.872C13.5276 35.96 13.5516 36.056 13.5276 36.16C13.5116 36.256 13.4596 36.332 13.3716 36.388C13.1716 36.516 12.9356 36.636 12.6636 36.748C12.3916 36.86 12.1036 36.948 11.7996 37.012C11.4956 37.084 11.1916 37.12 10.8876 37.12C10.3116 37.12 9.77161 37.016 9.26761 36.808C8.76361 36.6 8.31561 36.308 7.92361 35.932C7.53161 35.548 7.22361 35.092 6.99961 34.564C6.78361 34.036 6.67561 33.448 6.67561 32.8C6.67561 32.176 6.78361 31.604 6.99961 31.084C7.21561 30.556 7.51561 30.1 7.89961 29.716C8.28361 29.332 8.73161 29.032 9.24361 28.816C9.75561 28.6 10.3036 28.492 10.8876 28.492C11.3436 28.492 11.7836 28.556 12.2076 28.684C12.6316 28.812 13.0156 28.992 13.3596 29.224ZM19.9155 30.868C20.0195 30.868 20.1035 30.904 20.1675 30.976C20.2395 31.048 20.2755 31.136 20.2755 31.24V36.64C20.2755 36.736 20.2395 36.82 20.1675 36.892C20.0955 36.964 20.0115 37 19.9155 37C19.8115 37 19.7235 36.964 19.6515 36.892C19.5875 36.82 19.5555 36.736 19.5555 36.64V35.212L19.7595 35.116C19.7595 35.34 19.6955 35.568 19.5675 35.8C19.4475 36.032 19.2795 36.248 19.0635 36.448C18.8475 36.648 18.5915 36.812 18.2955 36.94C18.0075 37.06 17.6955 37.12 17.3595 37.12C16.8155 37.12 16.3275 36.98 15.8955 36.7C15.4715 36.42 15.1355 36.036 14.8875 35.548C14.6475 35.06 14.5275 34.512 14.5275 33.904C14.5275 33.28 14.6515 32.732 14.8995 32.26C15.1475 31.78 15.4835 31.404 15.9075 31.132C16.3315 30.86 16.8115 30.724 17.3475 30.724C17.6915 30.724 18.0115 30.784 18.3075 30.904C18.6115 31.024 18.8755 31.188 19.0995 31.396C19.3235 31.604 19.4955 31.844 19.6155 32.116C19.7435 32.38 19.8075 32.656 19.8075 32.944L19.5555 32.764V31.24C19.5555 31.136 19.5875 31.048 19.6515 30.976C19.7235 30.904 19.8115 30.868 19.9155 30.868ZM17.4195 36.448C17.8435 36.448 18.2195 36.34 18.5475 36.124C18.8755 35.9 19.1315 35.596 19.3155 35.212C19.5075 34.82 19.6035 34.384 19.6035 33.904C19.6035 33.432 19.5075 33.008 19.3155 32.632C19.1315 32.256 18.8755 31.956 18.5475 31.732C18.2195 31.508 17.8435 31.396 17.4195 31.396C17.0035 31.396 16.6275 31.504 16.2915 31.72C15.9635 31.936 15.7035 32.232 15.5115 32.608C15.3275 32.984 15.2355 33.416 15.2355 33.904C15.2355 34.384 15.3275 34.82 15.5115 35.212C15.7035 35.596 15.9635 35.9 16.2915 36.124C16.6195 36.34 16.9955 36.448 17.4195 36.448ZM22.5248 37C22.4128 37 22.3248 36.964 22.2608 36.892C22.1968 36.82 22.1648 36.736 22.1648 36.64V31.264C22.1648 31.168 22.1968 31.084 22.2608 31.012C22.3328 30.94 22.4208 30.904 22.5248 30.904C22.6288 30.904 22.7128 30.94 22.7768 31.012C22.8488 31.084 22.8848 31.168 22.8848 31.264V33.064L22.7048 33.1C22.7288 32.82 22.7968 32.544 22.9088 32.272C23.0288 31.992 23.1888 31.736 23.3888 31.504C23.5888 31.272 23.8248 31.084 24.0968 30.94C24.3768 30.796 24.6888 30.724 25.0328 30.724C25.1768 30.724 25.3168 30.756 25.4528 30.82C25.5888 30.876 25.6568 30.972 25.6568 31.108C25.6568 31.228 25.6248 31.32 25.5608 31.384C25.4968 31.448 25.4208 31.48 25.3328 31.48C25.2608 31.48 25.1808 31.46 25.0928 31.42C25.0128 31.38 24.9048 31.36 24.7688 31.36C24.5448 31.36 24.3208 31.428 24.0968 31.564C23.8728 31.692 23.6688 31.868 23.4848 32.092C23.3008 32.316 23.1528 32.568 23.0408 32.848C22.9368 33.12 22.8848 33.396 22.8848 33.676V36.64C22.8848 36.736 22.8488 36.82 22.7768 36.892C22.7048 36.964 22.6208 37 22.5248 37ZM26.386 30.892H29.182C29.278 30.892 29.358 30.928 29.422 31C29.486 31.064 29.518 31.144 29.518 31.24C29.518 31.328 29.486 31.404 29.422 31.468C29.358 31.532 29.278 31.564 29.182 31.564H26.386C26.29 31.564 26.206 31.532 26.134 31.468C26.07 31.396 26.038 31.316 26.038 31.228C26.038 31.132 26.07 31.052 26.134 30.988C26.206 30.924 26.29 30.892 26.386 30.892ZM27.622 29.2C27.726 29.2 27.81 29.236 27.874 29.308C27.946 29.38 27.982 29.464 27.982 29.56V35.584C27.982 35.808 28.01 35.976 28.066 36.088C28.13 36.2 28.21 36.276 28.306 36.316C28.402 36.348 28.498 36.364 28.594 36.364C28.658 36.364 28.714 36.356 28.762 36.34C28.818 36.316 28.878 36.304 28.942 36.304C29.014 36.304 29.074 36.332 29.122 36.388C29.178 36.444 29.206 36.516 29.206 36.604C29.206 36.716 29.142 36.812 29.014 36.892C28.886 36.964 28.734 37 28.558 37C28.486 37 28.378 36.996 28.234 36.988C28.09 36.972 27.942 36.928 27.79 36.856C27.638 36.776 27.51 36.64 27.406 36.448C27.31 36.256 27.262 35.98 27.262 35.62V29.56C27.262 29.464 27.294 29.38 27.358 29.308C27.43 29.236 27.518 29.2 27.622 29.2Z" fill="black"/>
</svg>
