<svg width="36" height="40" viewBox="0 0 36 40" fill="none" xmlns="http://www.w3.org/2000/svg">
<path d="M26.875 12.5C26.878 14.3612 26.3244 16.1808 25.2854 17.725C24.4286 19.0031 23.2699 20.0504 21.912 20.7743C20.5541 21.4981 19.0388 21.8762 17.5 21.875C15.9612 21.8762 14.4459 21.4981 13.088 20.7743C11.7301 20.0504 10.5714 19.0031 9.71458 17.725C8.89868 16.5088 8.37907 15.1183 8.1974 13.665C8.01574 12.2118 8.17708 10.7362 8.66849 9.35655C9.1599 7.97689 9.9677 6.73156 11.0272 5.72037C12.0866 4.70919 13.3682 3.96028 14.7693 3.53369C16.1703 3.1071 17.6518 3.01468 19.095 3.26386C20.5383 3.51304 21.903 4.09687 23.0799 4.96856C24.2568 5.84025 25.2131 6.97555 25.8722 8.28344C26.5312 9.59133 26.8747 11.0354 26.875 12.5Z" stroke="black"/>
<path d="M19.0625 9.375C19.0625 9.7894 18.8979 10.1868 18.6048 10.4799C18.3118 10.7729 17.9144 10.9375 17.5 10.9375V11.9792C17.842 11.9792 18.1806 11.9118 18.4966 11.7809C18.8125 11.6501 19.0996 11.4582 19.3414 11.2164C19.5832 10.9746 19.775 10.6875 19.9059 10.3716C20.0368 10.0556 20.1042 9.71699 20.1042 9.375H19.0625ZM17.5 10.9375C17.0856 10.9375 16.6882 10.7729 16.3951 10.4799C16.1021 10.1868 15.9375 9.7894 15.9375 9.375H14.8958C14.8958 9.71699 14.9632 10.0556 15.094 10.3716C15.2249 10.6875 15.4167 10.9746 15.6586 11.2164C16.1469 11.7048 16.8093 11.9792 17.5 11.9792V10.9375ZM15.9375 9.375C15.9375 8.9606 16.1021 8.56317 16.3951 8.27015C16.6882 7.97712 17.0856 7.8125 17.5 7.8125V6.77084C16.8093 6.77084 16.1469 7.0452 15.6586 7.53358C15.1702 8.02195 14.8958 8.68433 14.8958 9.375H15.9375ZM17.5 7.8125C17.9144 7.8125 18.3118 7.97712 18.6048 8.27015C18.8979 8.56317 19.0625 8.9606 19.0625 9.375H20.1042C20.1042 8.68433 19.8298 8.02195 19.3414 7.53358C18.853 7.0452 18.1907 6.77084 17.5 6.77084V7.8125ZM10.3812 18.6L9.88123 18.4521L9.80103 18.724L9.9854 18.9396L10.3812 18.6ZM24.6187 18.6L25.0146 18.9396L25.1989 18.724L25.1177 18.4521L24.6187 18.6ZM14.375 16.1458H20.625V15.1042H14.375V16.1458ZM14.375 15.1042C13.3655 15.104 12.3829 15.4298 11.5734 16.033C10.7639 16.6362 10.1697 17.4847 9.88123 18.4521L10.8802 18.749C11.1047 17.9966 11.5662 17.3368 12.1959 16.8678C12.8256 16.3988 13.5898 16.1456 14.375 16.1458V15.1042ZM17.5 21.3542C16.2221 21.3555 14.9592 21.0796 13.7983 20.5455C12.6375 20.0114 11.6063 19.2318 10.776 18.2604L9.9854 18.9396C10.9136 20.0247 12.0661 20.8957 13.3634 21.4924C14.6607 22.0891 16.072 22.3973 17.5 22.3958V21.3542ZM20.625 16.1458C21.4103 16.1456 22.1747 16.399 22.8043 16.8682C23.434 17.3374 23.8954 17.9974 24.1198 18.75L25.1177 18.4521C24.8292 17.4847 24.2361 16.6362 23.4266 16.033C22.6171 15.4298 21.6345 15.104 20.625 15.1042V16.1458ZM24.2239 18.2604C23.3936 19.2318 22.3625 20.0114 21.2016 20.5455C20.0408 21.0796 18.7778 21.3555 17.5 21.3542V22.3958C18.928 22.3973 20.3393 22.0891 21.6366 21.4924C22.9339 20.8957 24.0864 20.0247 25.0146 18.9396L24.2239 18.2604Z" fill="black"/>
<path d="M4.332 28.6C4.78 28.6 5.176 28.704 5.52 28.912C5.864 29.112 6.136 29.392 6.336 29.752C6.536 30.112 6.636 30.524 6.636 30.988C6.636 31.452 6.536 31.872 6.336 32.248C6.136 32.616 5.864 32.908 5.52 33.124C5.176 33.34 4.78 33.448 4.332 33.448H1.788L1.848 33.328V36.64C1.848 36.736 1.812 36.82 1.74 36.892C1.668 36.964 1.584 37 1.488 37C1.376 37 1.288 36.964 1.224 36.892C1.16 36.82 1.128 36.736 1.128 36.64V28.96C1.128 28.864 1.164 28.78 1.236 28.708C1.308 28.636 1.392 28.6 1.488 28.6H4.332ZM4.332 32.752C4.644 32.752 4.916 32.676 5.148 32.524C5.38 32.364 5.56 32.152 5.688 31.888C5.824 31.616 5.892 31.316 5.892 30.988C5.892 30.66 5.824 30.372 5.688 30.124C5.56 29.868 5.38 29.668 5.148 29.524C4.916 29.38 4.644 29.308 4.332 29.308H1.788L1.848 29.2V32.824L1.776 32.752H4.332ZM8.45644 37C8.34444 37 8.25644 36.964 8.19244 36.892C8.12844 36.82 8.09644 36.736 8.09644 36.64V31.264C8.09644 31.168 8.12844 31.084 8.19244 31.012C8.26444 30.94 8.35244 30.904 8.45644 30.904C8.56044 30.904 8.64444 30.94 8.70844 31.012C8.78044 31.084 8.81644 31.168 8.81644 31.264V33.064L8.63644 33.1C8.66044 32.82 8.72844 32.544 8.84044 32.272C8.96044 31.992 9.12044 31.736 9.32044 31.504C9.52044 31.272 9.75644 31.084 10.0284 30.94C10.3084 30.796 10.6204 30.724 10.9644 30.724C11.1084 30.724 11.2484 30.756 11.3844 30.82C11.5204 30.876 11.5884 30.972 11.5884 31.108C11.5884 31.228 11.5564 31.32 11.4924 31.384C11.4284 31.448 11.3524 31.48 11.2644 31.48C11.1924 31.48 11.1124 31.46 11.0244 31.42C10.9444 31.38 10.8364 31.36 10.7004 31.36C10.4764 31.36 10.2524 31.428 10.0284 31.564C9.80444 31.692 9.60044 31.868 9.41644 32.092C9.23244 32.316 9.08444 32.568 8.97244 32.848C8.86844 33.12 8.81644 33.396 8.81644 33.676V36.64C8.81644 36.736 8.78044 36.82 8.70844 36.892C8.63644 36.964 8.55244 37 8.45644 37ZM18.1561 33.928C18.1561 34.536 18.0241 35.084 17.7601 35.572C17.4961 36.052 17.1361 36.432 16.6801 36.712C16.2241 36.984 15.7041 37.12 15.1201 37.12C14.5521 37.12 14.0361 36.984 13.5721 36.712C13.1161 36.432 12.7521 36.052 12.4801 35.572C12.2161 35.084 12.0841 34.536 12.0841 33.928C12.0841 33.312 12.2161 32.764 12.4801 32.284C12.7521 31.804 13.1161 31.424 13.5721 31.144C14.0361 30.864 14.5521 30.724 15.1201 30.724C15.7041 30.724 16.2241 30.864 16.6801 31.144C17.1361 31.424 17.4961 31.804 17.7601 32.284C18.0241 32.764 18.1561 33.312 18.1561 33.928ZM17.4361 33.928C17.4361 33.44 17.3361 33.008 17.1361 32.632C16.9361 32.248 16.6601 31.948 16.3081 31.732C15.9641 31.508 15.5681 31.396 15.1201 31.396C14.6881 31.396 14.2961 31.508 13.9441 31.732C13.5921 31.948 13.3121 32.248 13.1041 32.632C12.9041 33.008 12.8041 33.44 12.8041 33.928C12.8041 34.416 12.9041 34.848 13.1041 35.224C13.3121 35.6 13.5921 35.9 13.9441 36.124C14.2961 36.34 14.6881 36.448 15.1201 36.448C15.5681 36.448 15.9641 36.34 16.3081 36.124C16.6601 35.9 16.9361 35.6 17.1361 35.224C17.3361 34.848 17.4361 34.416 17.4361 33.928ZM21.9063 28.168C22.0263 28.168 22.1543 28.18 22.2903 28.204C22.4343 28.228 22.5583 28.272 22.6623 28.336C22.7663 28.392 22.8183 28.48 22.8183 28.6C22.8183 28.688 22.7863 28.768 22.7223 28.84C22.6583 28.904 22.5863 28.936 22.5063 28.936C22.4263 28.936 22.3263 28.916 22.2063 28.876C22.0863 28.828 21.9583 28.804 21.8223 28.804C21.6543 28.804 21.5103 28.844 21.3903 28.924C21.2703 28.996 21.1783 29.104 21.1143 29.248C21.0503 29.384 21.0183 29.552 21.0183 29.752V36.64C21.0183 36.736 20.9823 36.82 20.9103 36.892C20.8463 36.964 20.7623 37 20.6583 37C20.5543 37 20.4663 36.964 20.3943 36.892C20.3303 36.82 20.2983 36.736 20.2983 36.64V29.752C20.2983 29.24 20.4463 28.848 20.7423 28.576C21.0463 28.304 21.4343 28.168 21.9063 28.168ZM22.3623 30.988C22.4583 30.988 22.5383 31.02 22.6023 31.084C22.6663 31.148 22.6983 31.228 22.6983 31.324C22.6983 31.42 22.6663 31.5 22.6023 31.564C22.5383 31.628 22.4583 31.66 22.3623 31.66H19.4223C19.3343 31.66 19.2543 31.628 19.1823 31.564C19.1183 31.492 19.0863 31.412 19.0863 31.324C19.0863 31.22 19.1183 31.14 19.1823 31.084C19.2543 31.02 19.3343 30.988 19.4223 30.988H22.3623ZM24.7023 36.64C24.7023 36.736 24.6663 36.82 24.5943 36.892C24.5223 36.964 24.4383 37 24.3423 37C24.2383 37 24.1503 36.964 24.0783 36.892C24.0143 36.82 23.9823 36.736 23.9823 36.64V31.12C23.9823 31.024 24.0143 30.94 24.0783 30.868C24.1503 30.796 24.2383 30.76 24.3423 30.76C24.4463 30.76 24.5303 30.796 24.5943 30.868C24.6663 30.94 24.7023 31.024 24.7023 31.12V36.64ZM24.3423 29.956C24.1743 29.956 24.0463 29.92 23.9583 29.848C23.8783 29.768 23.8383 29.656 23.8383 29.512V29.392C23.8383 29.248 23.8823 29.14 23.9703 29.068C24.0663 28.988 24.1943 28.948 24.3543 28.948C24.5063 28.948 24.6223 28.988 24.7023 29.068C24.7903 29.14 24.8343 29.248 24.8343 29.392V29.512C24.8343 29.656 24.7903 29.768 24.7023 29.848C24.6223 29.92 24.5023 29.956 24.3423 29.956ZM27.3572 36.64C27.3572 36.736 27.3212 36.82 27.2492 36.892C27.1772 36.964 27.0932 37 26.9972 37C26.8932 37 26.8052 36.964 26.7332 36.892C26.6692 36.82 26.6372 36.736 26.6372 36.64V28.48C26.6372 28.384 26.6732 28.3 26.7452 28.228C26.8172 28.156 26.9012 28.12 26.9972 28.12C27.1012 28.12 27.1852 28.156 27.2492 28.228C27.3212 28.3 27.3572 28.384 27.3572 28.48V36.64ZM31.9856 37.12C31.3696 37.12 30.8256 36.988 30.3536 36.724C29.8816 36.46 29.5136 36.092 29.2496 35.62C28.9856 35.148 28.8536 34.596 28.8536 33.964C28.8536 33.284 28.9856 32.704 29.2496 32.224C29.5216 31.744 29.8696 31.376 30.2936 31.12C30.7256 30.856 31.1816 30.724 31.6616 30.724C32.0136 30.724 32.3536 30.788 32.6816 30.916C33.0176 31.036 33.3136 31.22 33.5696 31.468C33.8336 31.708 34.0416 32.004 34.1936 32.356C34.3536 32.708 34.4416 33.116 34.4576 33.58C34.4496 33.676 34.4096 33.76 34.3376 33.832C34.2656 33.896 34.1816 33.928 34.0856 33.928H29.2736L29.1296 33.28H33.8576L33.7016 33.424V33.184C33.6696 32.808 33.5496 32.488 33.3416 32.224C33.1336 31.96 32.8816 31.76 32.5856 31.624C32.2896 31.488 31.9816 31.42 31.6616 31.42C31.4216 31.42 31.1736 31.468 30.9176 31.564C30.6696 31.66 30.4416 31.812 30.2336 32.02C30.0336 32.22 29.8696 32.48 29.7416 32.8C29.6136 33.112 29.5496 33.484 29.5496 33.916C29.5496 34.388 29.6456 34.816 29.8376 35.2C30.0296 35.584 30.3056 35.888 30.6656 36.112C31.0336 36.336 31.4696 36.448 31.9736 36.448C32.2536 36.448 32.5056 36.408 32.7296 36.328C32.9536 36.248 33.1496 36.144 33.3176 36.016C33.4856 35.88 33.6256 35.74 33.7376 35.596C33.8256 35.524 33.9136 35.488 34.0016 35.488C34.0816 35.488 34.1496 35.52 34.2056 35.584C34.2696 35.648 34.3016 35.72 34.3016 35.8C34.3016 35.896 34.2616 35.98 34.1816 36.052C33.9416 36.34 33.6296 36.592 33.2456 36.808C32.8616 37.016 32.4416 37.12 31.9856 37.12Z" fill="black"/>
</svg>
